<?xml version="1.0" encoding="UTF-8" standalone="no"?>
<!-- Created with Inkscape (http://www.inkscape.org/) -->

<svg
   version="1.1"
   id="svg9"
   width="221"
   height="228"
   viewBox="0 0 221 228"
   xmlns="http://www.w3.org/2000/svg"
   xmlns:svg="http://www.w3.org/2000/svg">
  <defs
     id="defs13" />
  <g
     id="layer2"
     style="display:inline;opacity:0.13529412">
    <path
       style="fill:#d45500"
       id="path1400"
       d="M 214.106,119.5479 A 106.20688,101.52457 0 0 1 108.03155,221.07239 106.20688,101.52457 0 0 1 1.6925681,119.80108 106.20688,101.52457 0 0 1 107.50182,18.024041 106.20688,101.52457 0 0 1 214.10467,119.04152 l -106.20555,0.50638 z" />
  </g>
  <g
     id="layer1"
     style="">
    <path
       style="fill:#000000;stroke-width:0.50795"
       d="m 123.95104,222.84311 c -3.96785,-0.15782 -7.43393,-0.51553 -7.7024,-0.7949 -0.26847,-0.27937 -0.80754,-2.10799 -1.19794,-4.06359 -0.70069,-3.51 -0.68186,-3.69078 1.46622,-14.07941 1.80753,-8.7417 2.52241,-11.21272 4.22162,-14.59228 1.12509,-2.23768 2.04561,-4.63208 2.04561,-5.3209 0,-0.96277 -0.9885,-2.0383 -4.27457,-4.65092 -3.34488,-2.65938 -4.45877,-3.88086 -5.12151,-5.6162 l -0.84693,-2.21767 h -2.71213 c -2.55513,0 -2.81734,-0.12292 -4.52954,-2.12323 -1.12515,-1.3145 -1.8174,-2.65301 -1.8174,-3.5141 0,-0.76499 -0.12994,-1.72948 -0.28874,-2.14333 -0.18089,-0.47139 0.6255,-1.62977 2.15878,-3.10112 l 2.44753,-2.34867 -1.59364,-1.25005 c -1.01971,-0.79986 -2.08264,-2.47155 -2.95147,-4.64185 -1.488,-3.71696 -1.44501,-5.66262 0.21109,-9.55223 0.49397,-1.16017 1.00532,-4.09311 1.17331,-6.72979 l 0.29776,-4.67341 4.60241,-6.09483 c 6.30593,-8.35074 10.4313,-11.50437 19.00436,-14.52785 6.14409,-2.16685 6.25523,-2.18528 14.05849,-2.33169 l 7.86545,-0.14759 6.85732,3.0886 6.85731,3.0886 4.31758,4.899 c 3.53067,4.00613 4.77265,5.89102 6.81452,10.34207 2.28507,4.98116 2.54928,5.96035 3.11345,11.53847 0.45377,4.48652 0.47687,7.59412 0.0875,11.77346 -0.46703,5.01338 -0.43013,5.8289 0.31522,6.96644 0.95979,1.46484 1.13476,5.72202 0.30917,7.52259 -0.30401,0.66304 -1.8275,1.79158 -3.52875,2.61395 -2.50665,1.21169 -3.34179,1.98133 -5.13271,4.73013 -1.50662,2.31245 -3.1288,3.97536 -5.48735,5.62512 -1.84162,1.28818 -3.55501,2.5206 -3.80752,2.73869 -0.25909,0.22377 0.16712,1.21759 0.97821,2.28099 2.62136,3.43678 7.86207,18.22529 7.86207,22.18559 0,3.00408 -1.37367,4.20582 -8.78788,7.68802 -5.1924,2.43868 -7.49787,3.15589 -17.23636,5.36205 -6.18321,1.40075 -11.60033,2.50451 -12.03805,2.4528 -0.43771,-0.0517 -4.04227,-0.22314 -8.01012,-0.38096 z m 7.10988,-61.79117 c 2.33007,-0.59451 3.79142,-1.37226 5.60359,-2.98228 2.7236,-2.41978 3.35747,-4.12061 3.3778,-9.06359 0.0103,-2.50926 -0.25098,-3.3564 -1.7657,-5.72429 -0.9778,-1.52856 -1.77782,-2.98984 -1.77782,-3.2473 0,-1.33727 -1.27918,-0.85835 -3.32229,1.24385 -1.2574,1.29377 -3.05414,2.67318 -3.99277,3.06536 -0.93862,0.39218 -4.62966,0.95042 -8.2023,1.24053 -3.57264,0.29011 -6.61536,0.64711 -6.76158,0.79334 -0.14623,0.14622 0.15925,2.42803 0.67885,5.07068 l 0.94473,4.80481 2.7042,2.16664 c 2.45154,1.96419 4.63397,2.78797 8.95765,3.38114 0.22196,0.0305 1.822,-0.30655 3.55564,-0.74889 z m 35.2105,-2.87838 c 2.94337,-2.52882 3.17318,-2.89519 4.44386,-7.08441 0.73698,-2.42972 1.33997,-4.55541 1.33997,-4.72375 0,-0.16835 -1.35454,-0.15284 -3.01008,0.0345 -2.47483,0.27999 -4.24552,0.0372 -9.95772,-1.36554 l -6.94763,-1.70609 -1.22573,-2.41886 c -0.67415,-1.33037 -1.30994,-2.41886 -1.41287,-2.41886 -0.10293,0 -1.12767,1.55664 -2.27722,3.45919 -1.92081,3.17905 -2.09007,3.74779 -2.09007,7.02278 0,3.41589 0.0919,3.68643 2.21726,6.52753 3.15341,4.21536 5.42183,5.28809 11.2441,5.31732 l 4.57225,0.023 3.10388,-2.66673 z"
       id="path4814" />
    <path
       style="fill:#000000;stroke:none;stroke-width:0.238019"
       d="m 86.42454,219.62756 -12.83359,-1.76187 -15.1336,-7.77414 c -8.32348,-4.27577 -15.18107,-7.81255 -15.23908,-7.85951 -0.0841,-0.0681 9.41411,-39.28779 10.23246,-42.25162 l 0.21681,-0.78523 10.59684,-3.20201 10.59683,-3.20201 -0.002,-0.72444 c -0.001,-0.39844 -0.0681,-1.27382 -0.14875,-1.94528 -0.13848,-1.15251 -0.19498,-1.2354 -1.00951,-1.48111 -0.47448,-0.14315 -2.89781,-1.44102 -5.38511,-2.88416 -2.48729,-1.44313 -4.64132,-2.62425 -4.78671,-2.62471 -0.1454,-4.7e-4 -1.4175,0.539 -2.82688,1.19878 -1.40938,0.65979 -2.60811,1.15401 -2.66384,1.09828 -0.0557,-0.0557 -0.20793,-1.79671 -0.33822,-3.86883 -0.13028,-2.07211 -0.26394,-3.79455 -0.29702,-3.82763 -0.0331,-0.0331 -2.40319,-0.17176 -5.2669,-0.30818 -2.86372,-0.13642 -5.23455,-0.27582 -5.26851,-0.30979 -0.034,-0.034 0.57466,-2.19872 1.35252,-4.81057 0.77785,-2.61184 1.44034,-4.89692 1.47219,-5.07795 0.0399,-0.22685 -1.85927,-1.06131 -6.11086,-2.68499 -3.39283,-1.29572 -6.20564,-2.39271 -6.2507,-2.43776 -0.0451,-0.0451 2.12221,-2.09046 4.81614,-4.54535 4.35498,-3.96855 4.86222,-4.50705 4.57492,-4.85684 -1.48011,-1.80201 -3.92443,-4.53391 -5.51021,-6.15851 -2.11393,-2.16567 -2.529,-2.37228 -7.92608,-3.9453 l -2.65964,-0.77517 7.59852,-4.870771 c 4.17919,-2.678926 7.59737,-4.925334 7.59595,-4.992015 -10e-4,-0.06668 -2.77597,-3.70937 -6.16569,-8.094863 -3.38972,-4.385493 -6.09305,-8.038394 -6.0074,-8.117556 0.0856,-0.07916 4.86664,-0.594999 10.62442,-1.146305 5.75779,-0.551306 10.49763,-1.031299 10.53298,-1.066649 0.0353,-0.03535 -1.32843,-3.777485 -3.03062,-8.315851 -1.70219,-4.538367 -3.09489,-8.29265 -3.09489,-8.342851 0,-0.0502 1.57985,0.308533 3.51077,0.797188 3.13983,0.79459 4.0198,1.143838 8.32839,3.305443 2.64968,1.329339 4.89905,2.41698 4.99858,2.41698 0.0995,0 1.13394,-4.364667 2.29867,-9.699259 1.16474,-5.334593 2.19268,-9.784734 2.28432,-9.889203 0.0916,-0.104469 3.3554,3.251258 7.25282,7.457171 l 7.0862,7.647114 0.74508,-0.72756 c 0.40979,-0.400158 2.2446,-2.435209 4.07735,-4.522335 l 3.33226,-3.794776 4.3634,-2.300392 c 2.39987,-1.265216 4.42656,-2.237228 4.50377,-2.160026 0.0772,0.0772 0.008,2.075104 -0.15461,4.439784 l -0.29498,4.299417 1.4741,5.993639 c 0.81075,3.296502 1.54095,6.062626 1.62266,6.146942 0.0817,0.08432 3.52248,-1.012129 7.64615,-2.436546 4.12367,-1.424417 7.56924,-2.564487 7.65681,-2.533489 0.0876,0.031 -2.08137,3.834579 -4.81987,8.452403 -2.73851,4.617823 -4.97911,8.482841 -4.97911,8.58893 0,0.106088 1.5263,0.376686 3.39177,0.601331 5.02671,0.605326 13.51897,1.831777 14.05392,2.029665 0.43758,0.161872 0.41888,0.227022 -0.30014,1.045942 -0.94377,1.074897 -6.28138,5.743782 -10.124,8.855616 -1.57092,1.272167 -2.87727,2.380972 -2.903,2.464009 -0.0257,0.08304 3.00569,1.647413 6.73649,3.476386 l 6.78328,3.325407 -8.93817,4.47032 c -4.91599,2.45868 -8.93816,4.55737 -8.93816,4.66377 0,0.10639 1.8677,2.27285 4.15046,4.81435 l 4.15047,4.62091 -4.49252,1.7949 c -2.47089,0.9872 -4.55724,1.85963 -4.63635,1.93873 -0.0791,0.0791 0.93612,1.93796 2.25605,4.13079 1.31993,2.19283 2.3646,4.02223 2.32149,4.06534 -0.0431,0.0431 -2.19156,0.3679 -4.77434,0.72176 -4.21147,0.577 -4.6823,0.68643 -4.56354,1.06062 0.0728,0.22947 0.70507,1.68532 1.40498,3.23522 0.69991,1.5499 1.2045,2.8816 1.1213,2.95935 -0.0832,0.0777 -1.40143,0.61023 -2.92941,1.18331 l -2.77816,1.04197 -0.64083,1.31588 c -0.94621,1.94293 -4.04366,4.55489 -7.06455,5.95724 -1.269,0.58909 -2.31206,1.21064 -2.3179,1.3812 -0.006,0.17057 0.27118,1.25151 0.6156,2.40209 l 0.62622,2.09197 7.98831,2.13624 7.9883,2.13625 2.58704,8.07665 c 2.86063,8.93079 12.24425,42.79012 13.69947,49.43239 l 0.92559,4.22483 -0.73779,0.001 c -0.40578,7.1e-4 -6.09321,0.32094 -12.63872,0.71138 -6.54551,0.39044 -12.00803,0.7 -12.13894,0.6879 -0.13091,-0.0121 -6.01313,-0.81484 -13.07161,-1.78387 z M 101.2436,103.53942 c 0.58366,-0.60218 0.94879,-1.39339 1.51032,-3.27275 0.90639,-3.033553 0.97125,-3.860532 0.3125,-3.983995 -0.26182,-0.04907 -0.69025,-0.274361 -0.95207,-0.500646 -0.82522,-0.713218 -2.96947,-1.597695 -6.91022,-2.85038 -4.04645,-1.286288 -5.21764,-1.41701 -9.03703,-1.008678 l -1.42811,0.152682 -0.63566,1.309103 c -0.52225,1.075537 -0.60764,1.500202 -0.47862,2.380186 0.0864,0.589096 0.14042,2.160933 0.12009,3.492973 -0.0272,1.782895 0.0439,2.452905 0.26943,2.539455 0.40786,0.15652 4.97606,0.59777 8.81739,0.8517 1.70184,0.1125 3.52268,0.33589 4.04632,0.49642 0.52364,0.16053 1.46084,0.34321 2.08266,0.40594 0.75755,0.0764 1.13059,0.22429 1.13059,0.44812 0,0.52569 0.32124,0.39743 1.15241,-0.46013 z m -33.90816,-1.02356 c 1.84675,-0.48364 6.20315,-0.4691 7.66015,0.0256 1.20761,0.41 3.19788,0.48845 3.19788,0.12606 0,-0.13091 0.17671,-0.23802 0.39269,-0.23802 0.34962,0 0.37665,-0.28063 0.24645,-2.558702 -0.26016,-4.551978 -1.49497,-8.179793 -3.30161,-9.699987 -0.40571,-0.341378 -1.2773,-0.894148 -1.93687,-1.228378 -1.14717,-0.581316 -1.33939,-0.603437 -4.42892,-0.509722 -3.74497,0.113597 -4.44542,0.365835 -6.25834,2.253672 -2.62215,2.730502 -3.49702,4.932246 -3.58786,9.029394 -0.0444,2.000323 -0.004,2.211303 0.52729,2.763543 0.56178,0.58384 0.64013,0.5956 3.33226,0.50054 1.51633,-0.0535 3.38692,-0.26232 4.15688,-0.46396 z"
       id="path199" />
  </g>
</svg>
